<?xml version="1.0" encoding="UTF-8"?>
<!DOCTYPE svg PUBLIC "-//W3C//DTD SVG 1.1//EN" "http://www.w3.org/Graphics/SVG/1.1/DTD/svg11.dtd">
<!-- Creator: CorelDRAW 2019 (64-Bit Оценочная версия) -->
<svg xmlns="http://www.w3.org/2000/svg" xml:space="preserve" width="210mm" height="297mm" version="1.1" style="shape-rendering:geometricPrecision; text-rendering:geometricPrecision; image-rendering:optimizeQuality; fill-rule:evenodd; clip-rule:evenodd"
viewBox="0 0 21000 29700"
 xmlns:xlink="http://www.w3.org/1999/xlink"
 xmlns:xodm="http://www.corel.com/coreldraw/odm/2003">
 <defs>
  <style type="text/css">
   <![CDATA[
    .fil1 {fill:#FEFEFE}
    .fil0 {fill:#C7B299}
   ]]>
  </style>
 </defs>
 <g id="Слой_x0020_1">
  <metadata id="CorelCorpID_0Corel-Layer"/>
  <path class="fil0" d="M10777.79 14572.02c-63.58,-63.63 -167.75,-63.63 -231.34,0 0,0 -124.91,124.98 -124.91,124.98 42.84,-12.19 89.29,-9 129.88,9.95 0,0 64.93,-64.99 64.93,-64.99 25.25,-25.27 66.29,-25.27 91.54,0 25.25,25.25 25.25,66.32 0,91.6 0,0 -81.62,81.68 -81.62,81.68 0,0 -53.66,53.67 -53.66,53.67 -25.26,25.29 -66.29,25.29 -91.54,0 0,0 -69.9,69.96 -69.9,69.96 16.23,16.25 35.17,28.41 55.02,36.11 53.66,21.18 115.89,13.07 162.79,-23.93 4.51,-3.61 9.46,-7.68 13.52,-12.18 0,0 84.33,-84.37 84.33,-84.37 0,0 50.96,-51.01 50.96,-51.01 64.03,-63.64 64.03,-167.42 0,-231.47zm-332.35 424.14c0,0 -62.23,62.29 -62.23,62.29 -25.25,25.27 -66.29,25.27 -91.54,0 -25.26,-25.3 -25.26,-66.33 0,-91.62 0,0 135.28,-135.33 135.28,-135.33 25.25,-25.28 66.29,-25.28 91.54,0 0,0 69.9,-69.96 69.9,-69.96 -16.23,-16.25 -35.18,-28.43 -55.01,-36.08 -56.38,-22.59 -122.67,-12.22 -170.02,30.2 -2.25,1.82 -4.5,4.08 -6.31,5.88 0,0 -135.28,135.4 -135.28,135.4 -63.59,63.6 -63.59,167.82 0,231.44 63.58,63.65 167.76,63.65 231.34,0 0,0 122.2,-123.63 122.2,-123.63 -62.22,14.44 -76.66,12.64 -129.87,-8.59z"/>
  <path class="fil1" d="M10777.79 14572.02c-63.58,-63.63 -167.75,-63.63 -231.34,0 0,0 -124.91,124.98 -124.91,124.98 42.84,-12.19 89.29,-9 129.88,9.95 0,0 64.93,-64.99 64.93,-64.99 25.25,-25.27 66.29,-25.27 91.54,0 25.25,25.25 25.25,66.32 0,91.6 0,0 -81.62,81.68 -81.62,81.68 0,0 -53.66,53.67 -53.66,53.67 -25.26,25.29 -66.29,25.29 -91.54,0 0,0 -69.9,69.96 -69.9,69.96 16.23,16.25 35.17,28.41 55.02,36.11 53.66,21.18 115.89,13.07 162.79,-23.93 4.51,-3.61 9.46,-7.68 13.52,-12.18 0,0 84.33,-84.37 84.33,-84.37 0,0 50.96,-51.01 50.96,-51.01 64.03,-63.64 64.03,-167.42 0,-231.47z"/>
  <path class="fil1" d="M10533.38 14725.46c-56.38,-22.59 -122.67,-12.22 -170.02,30.2 -2.25,1.82 -4.5,4.08 -6.31,5.88 0,0 -135.28,135.4 -135.28,135.4 -63.59,63.6 -63.59,167.82 0,231.44 63.58,63.65 167.76,63.65 231.34,0 0,0 122.2,-123.63 122.2,-123.63 -62.22,14.44 -76.66,12.64 -129.87,-8.59 0,0 -62.23,62.29 -62.23,62.29 -25.25,25.27 -66.29,25.27 -91.54,0 -25.26,-25.3 -25.26,-66.33 0,-91.62 0,0 135.28,-135.33 135.28,-135.33 25.25,-25.28 66.29,-25.28 91.54,0 0,0 69.9,-69.96 69.9,-69.96 -16.23,-16.25 -35.18,-28.43 -55.01,-36.08z"/>
 </g>
</svg>
