<?xml version="1.0" encoding="UTF-8"?>
<!DOCTYPE svg PUBLIC "-//W3C//DTD SVG 1.0//EN" "http://www.w3.org/TR/2001/REC-SVG-20010904/DTD/svg10.dtd">
<!-- Creator: CorelDRAW 2019 (64-Bit Оценочная версия) -->
<?xml-stylesheet href="TmpSVG.css" type="text/css"?>
<svg xmlns="http://www.w3.org/2000/svg" xml:space="preserve" width="210mm" height="297mm" version="1.0" style="shape-rendering:geometricPrecision; text-rendering:geometricPrecision; image-rendering:optimizeQuality; fill-rule:evenodd; clip-rule:evenodd"
viewBox="0 0 21000 29700"
 xmlns:xlink="http://www.w3.org/1999/xlink"
 xmlns:xodm="http://www.corel.com/coreldraw/odm/2003">
 <defs>
 <linearGradient id="id0" gradientUnits="userSpaceOnUse" x1="9412.78" y1="14371" x2="9570.77" y2="14482">
  <stop offset="0" style="stop-opacity:1; stop-color:white"/>
  <stop offset="1" style="stop-opacity:1; stop-color:#C7B299"/>
 </linearGradient>
 </defs>
 <g id="Слой_x0020_1">
  <metadata id="CorelCorpID_0Corel-Layer"/>
  <path class="fil0" d="M10441.9 14627.26c-19.22,0 -34.81,15.38 -34.81,34.28 0,18.98 15.59,34.31 34.81,34.31 42.53,0 80.5,23.42 99.16,61.09 6.03,12.21 18.4,19.27 31.29,19.27 5.14,0 10.33,-1.13 15.24,-3.45 17.28,-8.3 24.46,-28.84 16.04,-45.87 -30.4,-61.44 -92.39,-99.63 -161.73,-99.63zm374.44 470.95c0,0 -115.98,-114.25 -115.98,-114.25 34.33,-47.6 54.71,-105.58 54.71,-168.29 0,-160.72 -132.7,-291.49 -295.85,-291.49 -163.14,0 -295.85,130.77 -295.85,291.49 0,160.69 132.71,291.46 295.85,291.46 68.16,0 130.8,-23.03 180.87,-61.32 0,0 114.7,113 114.7,113 8.5,8.39 19.66,12.55 30.78,12.55 11.14,0 22.27,-4.15 30.77,-12.55 16.99,-16.71 16.99,-43.86 0,-60.6zm-583.34 -282.54c0,-122.91 101.5,-222.9 226.25,-222.9 124.73,0 226.23,99.99 226.23,222.9 0,51.12 -17.73,98.18 -47.26,135.81 -9.75,12.43 -20.71,23.92 -32.88,34.09 -39.45,32.99 -90.41,53 -146.09,53 -124.76,-0.04 -226.25,-100.02 -226.25,-222.9z"/>
 </g>
</svg>
